<?xml version="1.0" encoding="iso-8859-1"?>
<!-- Uploaded to: SVG Repo, www.svgrepo.com, Generator: SVG Repo Mixer Tools -->
<svg height="800px" width="800px" version="1.1" id="Layer_1" xmlns="http://www.w3.org/2000/svg" xmlns:xlink="http://www.w3.org/1999/xlink" 
	 viewBox="0 0 512 512" xml:space="preserve">
<g>
	<path style="fill:#00796B;" d="M331.093,128H180.907c-28.672-11.435-60.16-39.936-53.845-110.677
		c38.4,2.901,69.888,27.307,77.995,61.44c0.939,4.096,5.035,6.912,8.96,6.571c4.267-0.341,7.595-3.755,7.851-8.021
		c1.621-25.429,13.141-45.141,34.133-58.795c20.992,13.653,32.512,33.365,34.133,58.795c0.256,4.267,3.584,7.68,7.851,8.021
		c4.096,0.256,8.021-2.475,8.96-6.571c8.107-34.133,39.595-58.539,77.995-61.44C391.253,88.064,359.765,116.565,331.093,128z"/>
	<path style="fill:#00796B;" d="M329.387,145.067H182.613C125.611,199.509,43.52,334.251,76.885,418.475
		c20.053,50.773,79.104,76.459,175.445,76.459h3.584c98.901,0.768,158.891-25.088,179.2-76.459
		C468.48,334.251,386.389,199.509,329.387,145.067z M326.571,362.24c-1.963,23.211-27.563,40.96-62.037,44.032v12.544
		c0,4.779-3.84,8.533-8.533,8.533c-4.693,0-8.533-3.755-8.533-8.533v-12.203c-29.611-0.853-43.264-6.4-59.477-23.04
		c-3.243-3.413-3.157-8.789,0.171-12.117c3.413-3.243,8.789-3.157,12.117,0.171c12.117,12.459,21.077,17.152,47.189,17.92v-65.877
		c-40.533-4.352-58.539-27.136-58.197-48.981c0.341-22.784,20.395-46.08,58.197-49.493v-12.544c0-4.779,3.84-8.533,8.533-8.533
		s8.533,3.755,8.533,8.533v12.288c29.013,1.28,48.213,8.789,59.989,23.637c2.987,3.669,2.304,9.045-1.365,11.947
		c-3.669,2.987-9.045,2.304-11.947-1.365c-5.461-6.827-16.213-15.787-46.677-17.152v66.901
		C324.864,322.645,327.424,353.024,326.571,362.24z"/>
</g>
<path d="M353.28,145.067h22.187c4.693,0,8.533-3.84,8.533-8.533S380.16,128,375.467,128h-11.008
	c23.467-19.2,44.715-54.784,36.523-120.491C400.469,3.243,396.8,0,392.533,0c-38.997,0-73.216,18.859-91.221,48.213
	c-7.339-19.627-21.248-35.669-41.045-47.104c-2.645-1.451-5.888-1.451-8.533,0c-19.797,11.435-33.707,27.477-41.045,47.104
	C192.683,18.859,158.464,0,119.467,0c-4.267,0-7.936,3.243-8.448,7.509C102.827,73.216,124.075,108.8,147.541,128h-11.008
	c-4.693,0-8.533,3.84-8.533,8.533s3.84,8.533,8.533,8.533h22.187c-56.576,61.269-133.035,190.635-97.707,279.723
	C83.883,482.645,148.309,512,252.245,512h7.339c104.107,0,168.533-29.355,191.403-87.211
	C486.315,335.701,409.856,206.336,353.28,145.067z M127.061,17.323c38.4,2.901,69.888,27.307,77.995,61.44
	c0.939,4.096,5.035,6.912,8.96,6.571c4.267-0.341,7.595-3.755,7.851-8.021c1.621-25.429,13.141-45.141,34.133-58.795
	c20.992,13.653,32.512,33.365,34.133,58.795c0.256,4.267,3.584,7.68,7.851,8.021c4.096,0.256,8.021-2.475,8.96-6.571
	c8.107-34.133,39.595-58.539,77.995-61.44c6.315,70.741-25.173,99.243-53.845,110.677H180.907
	C152.235,116.565,120.747,88.064,127.061,17.323z M435.115,418.475c-20.309,51.371-80.299,77.227-179.2,76.459h-3.584
	c-96.341,0-155.392-25.685-175.445-76.459c-33.365-84.224,48.725-218.965,105.728-273.408h146.773
	C386.389,199.509,468.48,334.251,435.115,418.475z"/>
<path d="M264.533,308.907v-66.901c30.464,1.365,41.216,10.325,46.677,17.152c2.901,3.669,8.277,4.352,11.947,1.365
	c3.669-2.901,4.352-8.277,1.365-11.947c-11.776-14.848-30.976-22.357-59.989-23.637v-12.288c0-4.779-3.84-8.533-8.533-8.533
	s-8.533,3.755-8.533,8.533v12.544c-37.803,3.413-57.856,26.709-58.197,49.493c-0.341,21.845,17.664,44.629,58.197,48.981v65.877
	c-26.112-0.768-35.072-5.461-47.189-17.92c-3.328-3.328-8.704-3.413-12.117-0.171c-3.328,3.328-3.413,8.704-0.171,12.117
	c16.213,16.64,29.867,22.187,59.477,23.04v12.203c0,4.779,3.84,8.533,8.533,8.533c4.693,0,8.533-3.755,8.533-8.533v-12.544
	c34.475-3.072,60.075-20.821,62.037-44.032C327.424,353.024,324.864,322.645,264.533,308.907z M247.467,306.347
	c-28.501-3.584-41.387-17.749-41.131-31.403c0.256-14.677,14.507-29.525,41.131-32.512V306.347z M309.589,360.789
	c-1.024,12.459-18.091,25.515-45.056,28.245V326.4C298.923,335.104,310.528,349.952,309.589,360.789z"/>
<path style="fill:#004D40;" d="M384.939,17.323c-5.99,0.452-11.793,1.485-17.382,2.944c1.195,52.83-22.229,90.189-45.662,107.733
	h9.199C359.765,116.565,391.253,88.064,384.939,17.323z"/>
<path style="fill:#00796B;" d="M264.533,308.907c1.553,0.35,2.91,0.759,4.386,1.135c-1.374-0.649-2.893-1.271-4.386-1.894V308.907z"
	/>
<path style="fill:#004D40;" d="M329.387,145.067h-16.213c56.235,58.931,128.981,184.73,97.237,264.858
	c-20.309,51.371-80.299,77.227-179.2,76.459h-3.584c-35.482,0-65.869-3.516-91.145-10.453
	c29.252,12.638,67.925,19.004,115.849,19.004h3.584c98.901,0.768,158.891-25.088,179.2-76.459
	C468.48,334.251,386.389,199.509,329.387,145.067z"/>
<g>
	<path style="fill:#00796B;" d="M309.589,360.789c-1.024,12.459-18.091,25.515-45.056,28.245V326.4
		C298.923,335.104,310.528,349.952,309.589,360.789z"/>
	<path style="fill:#00796B;" d="M247.467,242.432v63.915c-28.501-3.584-41.387-17.749-41.131-31.403
		C206.592,260.267,220.843,245.419,247.467,242.432z"/>
</g>
</svg>